/* XPM */
static char * bitcoin32_xpm[] = {
"32 31 291 2",
"  	c None",
". 	c #1D1D1D",
"+ 	c #1E1E1E",
"@ 	c #212121",
"# 	c #202020",
"$ 	c #212020",
"% 	c #21201F",
"& 	c #212120",
"* 	c #202B32",
"= 	c #185C87",
"- 	c #176698",
"; 	c #176697",
"> 	c #17679A",
", 	c #19577E",
"' 	c #212223",
") 	c #131313",
"! 	c #171717",
"~ 	c #232323",
"{ 	c #221B17",
"] 	c #1D3F54",
"^ 	c #185D89",
"/ 	c #17679B",
"( 	c #0E9AF5",
"_ 	c #0CA4FF",
": 	c #0CA5FF",
"< 	c #0F95EC",
"[ 	c #185E8C",
"} 	c #1B4F70",
"| 	c #1F1F1F",
"1 	c #141414",
"2 	c #151515",
"3 	c #222323",
"4 	c #1F3645",
"5 	c #1675B4",
"6 	c #0D9FFF",
"7 	c #0D9DFE",
"8 	c #0D9EFF",
"9 	c #118CDB",
"0 	c #1E3B4F",
"a 	c #202629",
"b 	c #121212",
"c 	c #161616",
"d 	c #21282B",
"e 	c #137ABD",
"f 	c #0E9EFF",
"g 	c #18A3FF",
"h 	c #0F9EFF",
"i 	c #0C9EFF",
"j 	c #13A0FF",
"k 	c #198EDC",
"l 	c #1F3746",
"m 	c #151C20",
"n 	c #1185CB",
"o 	c #0C9FFF",
"p 	c #16A1FF",
"q 	c #35ADFD",
"r 	c #FEF7F3",
"s 	c #EEF1F3",
"t 	c #3FB0FC",
"u 	c #99D2F8",
"v 	c #F1F2F4",
"w 	c #C2E1F6",
"x 	c #32ABF8",
"y 	c #20323C",
"z 	c #141C20",
"A 	c #0D85CE",
"B 	c #049DFF",
"C 	c #66C0FB",
"D 	c #CDE5F6",
"E 	c #FDF9F7",
"F 	c #FFFFFF",
"G 	c #E3F9FF",
"H 	c #72CAFF",
"I 	c #059AFF",
"J 	c #8CCEF9",
"K 	c #E3EEF5",
"L 	c #FBFAF9",
"M 	c #DAF7FF",
"N 	c #3D4144",
"O 	c #141A1C",
"P 	c #0A83CC",
"Q 	c #019CFF",
"R 	c #80C9FA",
"S 	c #FCF7F5",
"T 	c #D4D5D5",
"U 	c #515151",
"V 	c #3B3735",
"W 	c #246994",
"X 	c #0BA2FF",
"Y 	c #B4DDF7",
"Z 	c #F8F7F5",
"` 	c #C6C6C7",
" .	c #303030",
"..	c #3A3A39",
"+.	c #262322",
"@.	c #151414",
"#.	c #0C5786",
"$.	c #068DE3",
"%.	c #009AFF",
"&.	c #7FC9FA",
"*.	c #FBF7F5",
"=.	c #CFD0D0",
"-.	c #363636",
";.	c #1B1715",
">.	c #155985",
",.	c #F8F7F6",
"'.	c #C0C0C0",
").	c #0F0F0F",
"!.	c #1B1A19",
"~.	c #195277",
"{.	c #211F1E",
"].	c #151312",
"^.	c #14252F",
"/.	c #00A4FF",
"(.	c #009BFF",
"_.	c #0199FF",
":.	c #54B9FB",
"<.	c #A9D9F9",
"[.	c #E9E1DC",
"}.	c #7E7B78",
"|.	c #244C65",
"1.	c #1272AE",
"2.	c #0DA2FF",
"3.	c #70C4FA",
"4.	c #D1E8F7",
"5.	c #DAD5D2",
"6.	c #545B5F",
"7.	c #214C68",
"8.	c #0D9CF4",
"9.	c #195378",
"0.	c #221D1A",
"a.	c #14242E",
"b.	c #009DFF",
"c.	c #0099FF",
"d.	c #029AFF",
"e.	c #1EA4FE",
"f.	c #C8E5F5",
"g.	c #BADDF3",
"h.	c #29A6F8",
"i.	c #0D9DFC",
"j.	c #059BFF",
"k.	c #6FC2FB",
"l.	c #BFE1F5",
"m.	c #98D0F4",
"n.	c #21A3F9",
"o.	c #0CA3FF",
"p.	c #1A5073",
"q.	c #069CFF",
"r.	c #0F9FFF",
"s.	c #0E9FFF",
"t.	c #0A9DFF",
"u.	c #019AFF",
"v.	c #009CFF",
"w.	c #0B9DFF",
"x.	c #0DA1FF",
"y.	c #0DA3FF",
"z.	c #0197F9",
"A.	c #11344A",
"B.	c #0B598B",
"C.	c #029DFF",
"D.	c #1D3340",
"E.	c #231B16",
"F.	c #1B4764",
"G.	c #1282C7",
"H.	c #202E34",
"I.	c #118EDD",
"J.	c #131517",
"K.	c #16110E",
"L.	c #15110E",
"M.	c #151413",
"N.	c #0199FD",
"O.	c #0D4D76",
"P.	c #141D22",
"Q.	c #122835",
"R.	c #0E4567",
"S.	c #00A2FF",
"T.	c #122E3F",
"U.	c #1E1D1C",
"V.	c #1B4B6A",
"W.	c #0CA6FF",
"X.	c #156DA5",
"Y.	c #1E394A",
"Z.	c #212528",
"`.	c #1D4056",
" +	c #0E9AF4",
".+	c #221E1D",
"++	c #20201F",
"@+	c #0666A5",
"#+	c #096198",
"$+	c #0E4162",
"%+	c #141F26",
"&+	c #170B05",
"*+	c #0E4264",
"=+	c #141E23",
"-+	c #15191B",
";+	c #0E496F",
">+	c #0E466A",
",+	c #141E24",
"'+	c #161515",
")+	c #182935",
"!+	c #195275",
"~+	c #1F3543",
"{+	c #211E1B",
"]+	c #221F1E",
"^+	c #1F303C",
"/+	c #231C16",
"(+	c #21201E",
"_+	c #1D2F3A",
":+	c #18405B",
"<+	c #14496D",
"[+	c #008AE4",
"}+	c #0098FC",
"|+	c #0196F9",
"1+	c #0192F1",
"2+	c #057ECC",
"3+	c #0C4F7A",
"4+	c #132027",
"5+	c #160E0A",
"6+	c #151311",
"7+	c #151514",
"8+	c #161717",
"9+	c #1C3240",
"0+	c #154B6F",
"a+	c #105D91",
"b+	c #0E6199",
"c+	c #0D639D",
"d+	c #0D6198",
"e+	c #0098FD",
"f+	c #00A1FF",
"g+	c #0388DB",
"h+	c #0B5787",
"i+	c #112F42",
"j+	c #132129",
"k+	c #14191C",
"l+	c #151616",
"m+	c #13181B",
"n+	c #16222A",
"o+	c #193547",
"p+	c #134E75",
"q+	c #0D659F",
"r+	c #0C68A4",
"s+	c #0D65A0",
"t+	c #0D649E",
"u+	c #0093F1",
"v+	c #0096F9",
"w+	c #00A0FF",
"x+	c #038ADE",
"y+	c #086CAD",
"z+	c #0C507A",
"A+	c #10374F",
"B+	c #122633",
"C+	c #0E2B3E",
"D+	c #0A3857",
"E+	c #054B79",
"F+	c #015994",
"G+	c #0061A2",
"H+	c #03609E",
"I+	c #07619D",
"J+	c #0A629D",
"K+	c #0C649D",
"L+	c #0D619A",
"M+	c #0091EF",
"N+	c #0099FD",
"O+	c #0192F0",
"P+	c #0388DF",
"Q+	c #0184DB",
"R+	c #0078C7",
"S+	c #0064A7",
"T+	c #005891",
"U+	c #005A95",
"V+	c #005B98",
"W+	c #005C99",
"X+	c #015D99",
"Y+	c #025E9B",
"Z+	c #045D97",
"`+	c #0099FE",
" @	c #0092F4",
".@	c #007CCC",
"+@	c #0065A7",
"@@	c #005C9A",
"#@	c #005690",
"$@	c #008EE9",
"%@	c #0097FA",
"&@	c #008EE8",
"*@	c #0091EE",
"=@	c #0096F8",
"-@	c #0093F3",
";@	c #008EEA",
">@	c #0095F6",
",@	c #008FEB",
"'@	c #008FEC",
"                                .                               ",
"                            + @ @ # +                           ",
"                        # # @ @ @ @ @ # +                       ",
"                    + @ @ @ $ % % % $ @ @ #                     ",
"                  # @ & % * = - ; > , ' $ @ @ +                 ",
"              ) ! ~ { ] ^ / ( _ _ : < [ } { & @ # |             ",
"          1 2 2 ! 3 4 5 6 7 8 8 8 8 8 8 9 0 a @ @ @ @ +         ",
"      b 2 2 2 2 c d e 6 f g g h 8 8 i j g k l @ @ @ @ @ #       ",
"      2 2 2 2 2 m n o p q r s t p i 8 u v w x y & @ @ @ @ #     ",
"    ) 2 2 2 2 2 z A B C D E F G H I J K L F M N # @ @ @ @ #     ",
"    ) 2 2 2 2 2 O P Q R S T U V W X Y Z `  ...+.$ @ @ @ @ #     ",
"    ) 2 2 2 @.z #.$.%.&.*.=.-.;.>._ Y ,.'.).!.~.l {.@ @ @ #     ",
"    ) 2 2 2 ].^./.(._.:.<.[.}.|.1.2.3.4.5.6.7.8.9.0.@ @ @ #     ",
"    ) 2 2 2 ].a.b.c.d.f e.f.g.h.i.8 j.k.l.m.n.o.p.0.@ @ @ #     ",
"    ) 2 2 2 ].a.b.c.c.q.8 r.r.8 8 8 8 f r.s.8 o.p.0.@ @ @ #     ",
"    ) 2 2 2 ].a.b.c.c.c.t.8 8 8 8 8 8 8 8 8 8 o.p.0.@ @ @ #     ",
"    ) 2 2 2 ].a.b.c.c.c.u.t.8 8 8 8 8 8 8 8 8 o.p.0.@ @ @ #     ",
"    ) 2 2 2 ].a.b.c.v.(.c.d.w.x.y.x.8 8 8 2.8 o.p.0.@ @ @ #     ",
"    ) 2 2 2 ].a.b.z.A.B.%.c.C.D.E.F.x.7 G.H.I.o.p.0.@ @ @ #     ",
"    J.K.L.M.].a.N.O.P.Q.R.S.b.T.U.V.W.X.Y.Z.`. +p.0.@ % .+++    ",
"    @+#+$+%+&+2 *+=+].].-+;+>+,+'+)+!+~+{+$ ]+V.^+/+(+_+:+<+    ",
"    [+}+|+1+2+3+4+5+6+7+2 2 2 2 2 2 8++ @ $ {..+9+0+a+b+c+d+    ",
"      e+c.c.%.b.f+g+h+i+j+k+2 M.@.@.l+m+n+o+p+q+r+s+t+t+t+d+    ",
"      u+v+%.c.c.c.(.w+w+x+y+z+A+B+C+D+E+F+G+H+I+J+K+t+t+L+      ",
"          M+N+c.c.c.c.c.%.v.%.O+P+Q+R+S+T+U+V+W+X+Y+Z+          ",
"              v+c.c.c.c.c.c.c.c.c.c.c.`+ @.@+@@@W+#@            ",
"                $@%@`+c.c.c.c.c.c.c.c.c.c.(.b.&@                ",
"                    *@=@%.c.c.c.c.c.c.c.c.-@                    ",
"                        ;@}+c.c.c.c.%.>@                        ",
"                            >@`+c.e+,@                          ",
"                                '@                              "};
